<svg xmlns="http://www.w3.org/2000/svg" version="1.1" xmlns:xlink="http://www.w3.org/1999/xlink" xmlns:svgjs="http://svgjs.dev/svgjs" width="1500" height="1500" viewBox="0 0 1500 1500"><rect width="1500" height="1500" fill="#000000"></rect><g transform="matrix(0.6666666666666666,0,0,0.6666666666666666,249.39393939393938,438.5856950067477)"><svg viewBox="0 0 396 247" data-background-color="#f9f9f9" preserveAspectRatio="xMidYMid meet" height="935" width="1500" xmlns="http://www.w3.org/2000/svg" xmlns:xlink="http://www.w3.org/1999/xlink"><g id="tight-bounds" transform="matrix(1,0,0,1,0.2400000000000091,-0.09999999999999432)"><svg viewBox="0 0 395.52 247.2" height="247.2" width="395.52"><g><svg></svg></g><g><svg viewBox="0 0 395.52 247.2" height="247.2" width="395.52"><g transform="matrix(1,0,0,1,75.54432,74.2752860986547)"><svg viewBox="0 0 244.43135999999998 98.64942780269058" height="98.64942780269058" width="244.43135999999998"><g><svg viewBox="0 0 244.43135999999998 98.64942780269058" height="98.64942780269058" width="244.43135999999998"><g><svg viewBox="0 0 244.43135999999998 98.64942780269058" height="98.64942780269058" width="244.43135999999998"><g><svg viewBox="0 0 244.43135999999998 98.64942780269058" height="98.64942780269058" width="244.43135999999998"><g id="textblocktransform"><svg viewBox="0 0 244.43135999999998 98.64942780269058" height="98.64942780269058" width="244.43135999999998" id="textblock"><g><svg viewBox="0 0 244.43135999999998 98.64942780269058" height="98.64942780269058" width="244.43135999999998"><g transform="matrix(1,0,0,1,0,0)"><svg width="244.43135999999998" viewBox="3.95 -35 111.49 45" height="98.64942780269058" data-palette-color="#030303"><path d="M16.1-25.75L16.1-25.75Q19.5-25.75 22.13-24.08 24.75-22.4 26.3-19.48 27.85-16.55 27.85-12.75L27.85-12.75Q27.85-8.95 26.3-6 24.75-3.05 22.1-1.35 19.45 0.35 16.15 0.35L16.15 0.35Q14.4 0.35 12.83-0.18 11.25-0.7 9.95-1.6 8.65-2.5 7.65-3.73 6.65-4.95 6.05-6.4L6.05-6.4 6.95-7.05 6.95 8.5Q6.95 9.1 6.53 9.55 6.1 10 5.45 10L5.45 10Q4.8 10 4.38 9.55 3.95 9.1 3.95 8.5L3.95 8.5 3.95-24.1Q3.95-24.75 4.35-25.2 4.75-25.65 5.45-25.65L5.45-25.65Q6.1-25.65 6.53-25.2 6.95-24.75 6.95-24.1L6.95-24.1 6.95-18.7 6.25-19.1Q6.75-20.65 7.73-21.88 8.7-23.1 10-23.98 11.3-24.85 12.85-25.3 14.4-25.75 16.1-25.75ZM15.85-22.95L15.85-22.95Q13.15-22.95 11.1-21.63 9.05-20.3 7.88-18.03 6.7-15.75 6.7-12.75L6.7-12.75Q6.7-9.8 7.88-7.45 9.05-5.1 11.1-3.78 13.15-2.45 15.85-2.45L15.85-2.45Q18.5-2.45 20.53-3.78 22.55-5.1 23.75-7.45 24.95-9.8 24.95-12.75L24.95-12.75Q24.95-15.7 23.75-18 22.55-20.3 20.53-21.63 18.5-22.95 15.85-22.95ZM45.4 0.5L45.4 0.5Q41.55 0.5 38.6-1.15 35.65-2.8 34-5.75 32.35-8.7 32.35-12.65L32.35-12.65Q32.35-16.9 34.02-19.9 35.7-22.9 38.37-24.53 41.05-26.15 44.05-26.15L44.05-26.15Q46.25-26.15 48.32-25.38 50.4-24.6 52-23.08 53.6-21.55 54.6-19.35 55.6-17.15 55.65-14.25L55.65-14.25Q55.65-13.65 55.2-13.23 54.75-12.8 54.15-12.8L54.15-12.8 34.1-12.8 33.5-15.5 53.2-15.5 52.55-14.9 52.55-15.9Q52.3-18.25 51-19.9 49.7-21.55 47.87-22.4 46.05-23.25 44.05-23.25L44.05-23.25Q42.55-23.25 40.97-22.65 39.4-22.05 38.12-20.78 36.85-19.5 36.05-17.53 35.25-15.55 35.25-12.85L35.25-12.85Q35.25-9.9 36.45-7.5 37.65-5.1 39.9-3.7 42.15-2.3 45.35-2.3L45.35-2.3Q47.05-2.3 48.45-2.8 49.85-3.3 50.92-4.13 52-4.95 52.7-5.85L52.7-5.85Q53.25-6.3 53.75-6.3L53.75-6.3Q54.3-6.3 54.67-5.9 55.05-5.5 55.05-5L55.05-5Q55.05-4.4 54.55-3.95L54.55-3.95Q53.05-2.15 50.65-0.83 48.25 0.5 45.4 0.5ZM80.65-26L80.65-26Q81.3-26 81.72-25.55 82.15-25.1 82.15-24.5L82.15-24.5 82.15-2.45Q82.15 1.6 80.55 4.38 78.95 7.15 76.25 8.58 73.55 10 70.09 10L70.09 10Q67.95 10 66.12 9.53 64.3 9.05 63.15 8.3L63.15 8.3Q62.55 7.95 62.25 7.45 61.95 6.95 62.2 6.4L62.2 6.4Q62.45 5.7 62.97 5.48 63.5 5.25 64.05 5.5L64.05 5.5Q64.9 5.95 66.5 6.6 68.09 7.25 70.15 7.25L70.15 7.25Q72.9 7.25 74.92 6.1 76.95 4.95 78.05 2.78 79.15 0.6 79.15-2.4L79.15-2.4 79.15-6 79.5-4.8Q78.75-3.25 77.37-2.05 76-0.85 74.22-0.18 72.45 0.5 70.45 0.5L70.45 0.5Q67.45 0.5 65.47-0.73 63.5-1.95 62.55-4.1 61.6-6.25 61.6-9.15L61.6-9.15 61.6-24.5Q61.6-25.1 62-25.55 62.4-26 63.1-26L63.1-26Q63.75-26 64.17-25.55 64.59-25.1 64.59-24.5L64.59-24.5 64.59-9.6Q64.59-6.1 66.12-4.2 67.65-2.3 71.09-2.3L71.09-2.3Q73.25-2.3 75.05-3.33 76.84-4.35 78-6.03 79.15-7.7 79.15-9.6L79.15-9.6 79.15-24.5Q79.15-25.1 79.57-25.55 80-26 80.65-26ZM91.04-35L113.79-35Q114.54-35 114.99-34.55 115.44-34.1 115.44-33.5L115.44-33.5Q115.44-33 115.14-32.6L115.14-32.6 92.39-2.45 92.29-2.85 113.74-2.85Q114.34-2.85 114.79-2.45 115.24-2.05 115.24-1.45L115.24-1.45Q115.24-0.85 114.79-0.43 114.34 0 113.74 0L113.74 0 89.79 0Q89.09 0 88.67-0.5 88.24-1 88.24-1.55L88.24-1.55Q88.24-2.05 88.54-2.45L88.54-2.45 111.19-32.35 111.49-32.15 91.04-32.15Q90.39-32.15 89.97-32.58 89.54-33 89.54-33.6L89.54-33.6Q89.54-34.2 89.97-34.6 90.39-35 91.04-35L91.04-35Z" opacity="1" transform="matrix(1,0,0,1,0,0)" fill="#ffffff" class="wordmark-text-0" data-fill-palette-color="primary" id="text-0"></path></svg></g></svg></g></svg></g></svg></g></svg></g></svg></g></svg></g><g><path d="M245.816 0c68.262 0 123.6 55.338 123.6 123.6 0 68.262-55.338 123.6-123.6 123.6-46.092 0-86.291-25.229-107.541-62.631h5.148c20.793 34.845 58.867 58.183 102.393 58.183 65.806 0 119.152-53.346 119.152-119.152 0-65.806-53.346-119.152-119.152-119.152-43.525 0-81.6 23.338-102.393 58.183l-5.148 0c21.25-37.402 61.449-62.631 107.541-62.631z" fill="#ffffff" stroke="transparent" data-fill-palette-color="tertiary"></path></g></svg></g><defs></defs></svg><rect width="395.52" height="247.2" fill="none" stroke="none" visibility="hidden"></rect></g></svg></g></svg>